<svg id="visual" viewBox="0 0 960 540" width="960" height="540" xmlns="http://www.w3.org/2000/svg" xmlns:xlink="http://www.w3.org/1999/xlink" version="1.1"><rect x="0" y="0" width="960" height="540" fill="#002233"></rect><path d="M231 0L234 15C237 30 243 60 245.7 90C248.3 120 247.7 150 244.3 180C241 210 235 240 233.7 270C232.3 300 235.7 330 241.7 360C247.7 390 256.3 420 254.2 450C252 480 239 510 232.5 525L226 540L0 540L0 525C0 510 0 480 0 450C0 420 0 390 0 360C0 330 0 300 0 270C0 240 0 210 0 180C0 150 0 120 0 90C0 60 0 30 0 15L0 0Z" fill="#0066FF" stroke-linecap="round" stroke-linejoin="miter"></path></svg>