<svg id="visual" viewBox="0 0 900 450" width="900" height="450" xmlns="http://www.w3.org/2000/svg" xmlns:xlink="http://www.w3.org/1999/xlink" version="1.1"><rect x="0" y="0" width="900" height="450" fill="#002233"></rect><path d="M506 0L489.3 12.5C472.7 25 439.3 50 390.7 75C342 100 278 125 240.7 150C203.3 175 192.7 200 196.8 225C201 250 220 275 205.8 300C191.7 325 144.3 350 142.2 375C140 400 183 425 204.5 437.5L226 450L0 450L0 437.5C0 425 0 400 0 375C0 350 0 325 0 300C0 275 0 250 0 225C0 200 0 175 0 150C0 125 0 100 0 75C0 50 0 25 0 12.5L0 0Z" fill="#0066FF" stroke-linecap="round" stroke-linejoin="miter"></path></svg>